<svg height="512pt" viewBox="0 -22 512 512" width="512pt" xmlns="http://www.w3.org/2000/svg"><path d="m339.015625 300.390625h-166.03125c-4.140625 0-7.5 3.359375-7.5 7.5s3.359375 7.5 7.5 7.5h166.03125c4.140625 0 7.5-3.359375 7.5-7.5s-3.359375-7.5-7.5-7.5zm0 0"/><path d="m317.828125 331.785156h-123.65625c-4.140625 0-7.5 3.359375-7.5 7.5 0 4.144532 3.359375 7.5 7.5 7.5h123.65625c4.140625 0 7.5-3.355468 7.5-7.5 0-4.140625-3.359375-7.5-7.5-7.5zm0 0"/><path d="m113.398438 295.191406h-42.511719c-10.417969 0-18.894531 8.472656-18.894531 18.890625v23.261719c0 10.417969 8.476562 18.890625 18.894531 18.890625h42.511719c10.417968 0 18.890624-8.476563 18.890624-18.890625v-23.261719c0-10.417969-8.476562-18.890625-18.890624-18.890625zm3.890624 42.152344c0 2.144531-1.746093 3.890625-3.890624 3.890625h-42.511719c-2.148438 0-3.894531-1.746094-3.894531-3.890625v-23.261719c0-2.144531 1.746093-3.890625 3.894531-3.890625h42.511719c2.144531 0 3.890624 1.746094 3.890624 3.890625zm0 0"/><path d="m441.113281 295.191406h-42.511719c-10.414062 0-18.890624 8.472656-18.890624 18.890625v23.261719c0 10.417969 8.476562 18.890625 18.890624 18.890625h42.511719c10.417969 0 18.894531-8.476563 18.894531-18.890625v-23.261719c0-10.417969-8.476562-18.890625-18.894531-18.890625zm3.894531 42.152344c0 2.144531-1.746093 3.890625-3.894531 3.890625h-42.511719c-2.144531 0-3.890624-1.746094-3.890624-3.890625v-23.261719c0-2.144531 1.746093-3.890625 3.890624-3.890625h42.511719c2.148438 0 3.894531 1.746094 3.894531 3.890625zm0 0"/><path d="m94.660156 280.03125c3.796875 2.316406 8.160156 3.675781 12.511719 3.675781h297.667969c4.449218 0 8.871094-1.105469 12.660156-3.441406 8.0625-4.96875 12.175781-14.007813 11.054688-22.964844-.039063-.320312-.101563-.640625-.183594-.953125l-13.203125-50.835937c-1.039063-4.007813-5.128907-6.414063-9.144531-5.371094-4.007813 1.039063-6.414063 5.132813-5.371094 9.144531l13.0625 50.289063c.171875 2.222656-.511719 4.359375-1.945313 6.074219-2.414062 2.894531-6.054687 3.058593-9.542969 3.058593-3.546874-12.046875-13.796874-21.203125-26.273437-23.292969-4.046875-11.417968-12.246094-20.53125-22.664063-25.796874 7.203126-6.753907 11.707032-16.351563 11.707032-26.980469 0-20.402344-16.597656-36.996094-36.996094-36.996094s-36.996094 16.59375-36.996094 36.996094c0 10.628906 4.503906 20.226562 11.707032 26.980469-5.898438 2.980468-11.082032 7.195312-15.207032 12.363281-2.605468-4.300781-6.152344-7.96875-10.347656-10.722657 3.78125-5.269531 6.046875-11.214843 6.046875-17.679687 0-15-12.203125-27.199219-27.203125-27.199219s-27.203125 12.203125-27.203125 27.199219c0 6.464844 2.269531 12.410156 6.046875 17.679687-4.195312 2.753907-7.742188 6.421876-10.347656 10.71875-4.125-5.164062-9.3125-9.378906-15.210938-12.359374 7.203125-6.753907 11.710938-16.351563 11.710938-26.980469 0-20.402344-16.597656-37-36.996094-37-20.402344 0-37 16.597656-37 37 0 10.628906 4.507812 20.226562 11.710938 26.980469-10.417969 5.261718-18.617188 14.375-22.667969 25.792968-12.476563 2.09375-22.726563 11.246094-26.273438 23.296875 0 0-2.679687 0-2.683593 0-4.925782 0-9.199219-4.015625-8.800782-9.136719l12.351563-48.117187c1.027343-4.003906-1.378907-8.085937-5.378907-9.125-4.019531-1.042969-8.117187 1.375-9.152343 5.394531 0 0-12.480469 48.621094-12.480469 48.625-2.496094 9.617188 3.007812 18.785156 11.035156 23.683594zm233.339844-109.394531c12.128906 0 21.996094 9.867187 21.996094 22 0 12.128906-9.867188 21.996093-21.996094 21.996093s-21.996094-9.867187-21.996094-21.996093c0-12.128907 9.867188-22 21.996094-22zm-4.21875 58.996093h8.4375c11.1875 0 21.390625 6.078126 26.972656 15.328126h-62.382812c5.582031-9.25 15.785156-15.328126 26.972656-15.328126zm-67.78125-38.253906c6.730469 0 12.203125 5.472656 12.203125 12.199219 0 6.730469-5.476563 12.203125-12.203125 12.203125s-12.203125-5.472656-12.203125-12.203125c0-6.726563 5.472656-12.199219 12.203125-12.199219zm-2.816406 39.402344h5.632812c8.71875 0 16.046875 6.054688 18.003906 14.179688h-41.640624c1.957031-8.125 9.285156-14.179688 18.003906-14.179688zm-69.183594-60.144531c12.128906 0 21.996094 9.867187 21.996094 22 0 12.128906-9.867188 21.996093-21.996094 21.996093s-21.996094-9.867187-21.996094-21.996093c0-12.132813 9.867188-22 21.996094-22zm-4.21875 58.996093h8.4375c11.1875 0 21.390625 6.078126 26.972656 15.328126h-62.382812c5.582031-9.25 15.785156-15.328126 26.972656-15.328126zm-38.300781 30.328126h229.039062c6.5 0 12.277344 3.496093 15.453125 8.746093h-259.945312c3.175781-5.25 8.953125-8.746093 15.453125-8.746093zm0 0"/><path d="m111.066406 180.53125c3.964844 1.027344 8.117188-1.417969 9.148438-5.375l6.894531-26.554688c.386719-1.480468 1.722656-2.515624 3.25-2.515624h251.28125c1.527344 0 2.863281 1.035156 3.25 2.515624l6.894531 26.542969c1.039063 4.007813 5.140625 6.414063 9.144532 5.371094 4.007812-1.039063 6.414062-5.132813 5.375-9.144531l-6.898438-26.542969c-2.101562-8.089844-9.40625-13.742187-17.765625-13.742187h-251.28125c-8.359375 0-15.664063 5.652343-17.765625 13.742187l-6.898438 26.558594c-1.042968 4.007812 1.363282 8.101562 5.371094 9.144531zm0 0"/><path d="m494.878906 213.738281h-28.910156c-5.222656 0-10.105469 2.03125-13.765625 5.421875l-25.785156-100.183594c-2.800781-11.925781-13.296875-20.25-25.554688-20.25h-35.363281c.707031-2.203124 1.085938-4.535156 1.085938-6.917968v-28.53125c0-12.640625-10.28125-22.921875-22.921876-22.921875h-8.503906c.089844-.738281.140625-1.488281.140625-2.242188v-19.871093c0-10.058594-8.183593-18.242188-18.242187-18.242188h-122.117188c-10.058594 0-18.242187 8.183594-18.242187 18.242188v19.871093c0 .753907.050781 1.503907.140625 2.242188h-8.503906c-12.640626 0-22.921876 10.28125-22.921876 22.917969v28.535156c0 2.382812.378907 4.714844 1.085938 6.917968h-35.363281c-12.257813 0-22.753907 8.320313-25.554688 20.246094l-25.785156 100.1875c-3.660156-3.390625-8.542969-5.421875-13.765625-5.421875h-28.910156c-9.441406 0-17.121094 7.683594-17.121094 17.125v15.3125c0 9.441407 7.679688 17.121094 17.121094 17.121094h18.609375l-3.277344 2.355469c-11.535156 8.292968-18.421875 21.730468-18.421875 35.9375v58.175781c0 20.054687 14.222656 36.851563 33.113281 40.828125v29.140625c0 20.742187 16.875 37.617187 37.617188 37.617187h20.015625c20.742187 0 37.617187-16.875 37.617187-37.617187v-28.246094h227.210938v28.246094c0 20.742187 16.875 37.617187 37.617187 37.617187h20.015625c20.742188 0 37.617188-16.875 37.617188-37.617187v-29.140625c18.890625-3.976562 33.113281-20.773438 33.113281-40.828125v-58.175781c0-14.207032-6.886719-27.644532-18.421875-35.9375l-3.277344-2.355469h18.609375c9.441406 0 17.121094-7.679687 17.121094-17.121094v-15.3125c0-9.441406-7.679688-17.125-17.121094-17.125zm-334.464844-150.460937c0-4.371094 3.554688-7.921875 7.921876-7.921875h40.414062c4.140625 0 7.5-3.359375 7.5-7.5s-3.359375-7.5-7.5-7.5h-16.136719c-.574219-.59375-.914062-1.394531-.914062-2.242188v-19.871093c0-1.789063 1.453125-3.242188 3.242187-3.242188h122.117188c1.785156 0 3.238281 1.453125 3.238281 3.242188v19.871093c0 .847657-.335937 1.648438-.910156 2.242188h-75.742188c-4.140625 0-7.5 3.355469-7.5 7.5 0 4.140625 3.359375 7.5 7.5 7.5h100.019531c4.367188 0 7.921876 3.550781 7.921876 7.917969v28.535156c0 2.886718-1.609376 5.539062-4.101563 6.917968h-182.96875c-2.492187-1.378906-4.101563-4.035156-4.101563-6.917968zm-143.292968 185.019531c-1.167969 0-2.121094-.953125-2.121094-2.121094v-15.316406c0-1.167969.953125-2.121094 2.121094-2.121094h28.910156c2.347656 0 4.421875 1.578125 5.054688 3.839844l2.734374 9.804687-1.523437 5.914063zm110.273437 181.4375c0 12.472656-10.144531 22.617187-22.617187 22.617187h-20.015625c-12.472657 0-22.617188-10.144531-22.617188-22.617187v-28.246094h65.25zm322.460938 0c0 12.472656-10.144531 22.617187-22.617188 22.617187h-20.015625c-12.472656 0-22.617187-10.144531-22.617187-22.617187v-28.246094h65.25zm33.113281-128.144531v58.175781c0 14.332031-11.339844 26.0625-25.519531 26.695313-.03125 0-.0625 0-.09375 0-.195313 0-.390625.007812-.585938.019531-.171875.003906-.347656.007812-.523437.007812h-400.492188c-14.734375 0-26.722656-11.988281-26.722656-26.722656v-58.175781c0-9.394532 4.550781-18.273438 12.179688-23.757813l16.660156-11.976562c4.414062-3.171875 7.523437-7.828125 8.769531-13.113281l33.488281-130.109376c.015625-.0625.03125-.121093.046875-.183593 1.183594-5.132813 5.691407-8.71875 10.960938-8.71875h289.722656c5.273437 0 9.777344 3.585937 10.964844 8.71875.015625.0625.027343.121093.042969.183593l33.488281 130.105469c1.246093 5.289063 4.359375 9.945313 8.773437 13.117188l16.660156 11.976562c7.625 5.484375 12.179688 14.363281 12.179688 23.757813zm14.03125-55.414063c0 1.171875-.953125 2.121094-2.121094 2.121094h-35.175781l-1.519531-5.914063 2.730468-9.804687c.632813-2.257813 2.707032-3.835937 5.054688-3.835937h28.910156c1.167969 0 2.121094.949218 2.121094 2.121093zm0 0"/></svg>